<?xml version="1.0" encoding="UTF-8" standalone="no"?>
<!-- Uploaded to: SVG Repo, www.svgrepo.com, Generator: SVG Repo Mixer Tools -->

<svg
   width="800"
   height="800"
   viewBox="0 0 24 24"
   fill="none"
   version="1.1"
   id="svg4"
   sodipodi:docname="box-checked.svg"
   xmlns:inkscape="http://www.inkscape.org/namespaces/inkscape"
   xmlns:sodipodi="http://sodipodi.sourceforge.net/DTD/sodipodi-0.dtd"
   xmlns="http://www.w3.org/2000/svg"
   xmlns:svg="http://www.w3.org/2000/svg">
  <defs
     id="defs8" />
  <sodipodi:namedview
     id="namedview6"
     pagecolor="#ffffff"
     bordercolor="#000000"
     borderopacity="0.25"
     inkscape:showpageshadow="2"
     inkscape:pageopacity="0.0"
     inkscape:pagecheckerboard="0"
     inkscape:deskcolor="#d1d1d1"
     showgrid="false" />
  <path
     d="m 7.5,12 3,3 6,-6 M 7.8,21 h 8.4 c 1.6802,0 2.5202,0 3.162,-0.327 0.5645,-0.2876 1.0234,-0.7465 1.311,-1.311 C 21,18.7202 21,17.8802 21,16.2 V 7.8 C 21,6.11984 21,5.27976 20.673,4.63803 20.3854,4.07354 19.9265,3.6146 19.362,3.32698 18.7202,3 17.8802,3 16.2,3 H 7.8 C 6.11984,3 5.27976,3 4.63803,3.32698 4.07354,3.6146 3.6146,4.07354 3.32698,4.63803 3,5.27976 3,6.11984 3,7.8 v 8.4 c 0,1.6802 0,2.5202 0.32698,3.162 0.28762,0.5645 0.74656,1.0234 1.31105,1.311 C 5.27976,21 6.11984,21 7.8,21 Z"
     stroke="#000000"
     stroke-width="2"
     stroke-linecap="round"
     stroke-linejoin="round"
     id="path2"
     style="stroke:#008cff;stroke-width:2.00001;stroke-dasharray:none;stroke-opacity:1" />
</svg>
